<?xml version="1.0" encoding="utf-8"?>
<!-- Generator: Adobe Illustrator 21.1.0, SVG Export Plug-In . SVG Version: 6.00 Build 0)  -->
<svg version="1.1" id="Layer_1" xmlns="http://www.w3.org/2000/svg" xmlns:xlink="http://www.w3.org/1999/xlink" x="0px" y="0px"
	 viewBox="0 0 466 466" style="enable-background:new 0 0 466 466;" xml:space="preserve">
<style type="text/css">
	.st0{fill:#FFFFFF;}
</style>
<path class="st0" d="M409.8,161.2h-0.7c-9.8,0-19.3,3.8-26.5,10.6c-5.6-16.3-20.4-28-37.8-28c-10.8,0.1-21,4.7-28.3,12.6
	c-6.6-13.9-20.2-23.2-35.9-23.2h-0.8c-9,0-17.8,2.7-23.8,8V42.4C256.1,19,237.9,0,215.8,0c-22.1,0-40.1,19-40.1,42.3l-0.2,195.5
	l-11.9-14.4c-9.5-11.9-23.6-19.3-38.8-20.4c-14.9-1-29.5,4.2-40.5,14.3l-9.6,7.9c-2.9,2.4-3.7,6.5-2,9.8l92.9,178.4
	c16.9,32.5,49.1,52.5,83.9,52.5h104.2c52.8,0,95.9-45.7,95.9-102c0-25.2,0.1-43.9,0.1-59.1c0.1-41,0.1-56.4,0-101.5
	C449.8,180.1,431.8,161.2,409.8,161.2z M433.9,305c0,15.2,0,33.9-0.1,59c0,47.5-35.9,86-79.9,86H249.7c-28.9,0-55.6-16.8-69.7-43.9
	L90,233.4l4.7-3.9c0.1-0.1,0.2-0.2,0.3-0.3c7.7-7.3,18.1-11,28.7-10.3c10.8,0.8,20.8,6.1,27.5,14.6l26,31.7c2.1,2.6,5.7,3.6,8.9,2.5
	c3.2-1.1,5.3-4.1,5.3-7.5l0.2-217.8c0-14.5,11-26.4,24.2-26.4c13.3,0,24.2,11.8,24.2,26.4v131.3c0,0.5,0,0.9,0,1.4
	c0,0.2,0,0.4,0,0.6v56.2c0,4.4,3.6,8,8,8s8-3.6,8-8V174c0-14,10.9-24.8,23.8-24.8h0.8c13.3,0,24.4,11.3,24.4,25.9v51.4
	c0,4.4,3.6,8,8,8s8-3.6,8-8v-40.3c0-14.5,10.7-26.4,24-26.4c13.3,0,23.9,11.8,23.9,26.4v38c0,4.4,3.6,8,8,8s8-3.6,8-8v-20.6
	c0-14.5,10.8-26.4,24.1-26.4h0.7c13.3,0,24.1,11.8,24.1,26.3C434,248.6,433.9,264,433.9,305z"/>
<path class="st0" d="M284,79.2h103.6l-18.6,18.6c-2.1,2-2.9,5-2.2,7.8c0.7,2.8,2.9,5,5.7,5.7c2.8,0.7,5.8-0.1,7.8-2.2L412.5,77
	c3.1-3.1,3.1-8.2,0-11.3l-32.1-32.1c-3.1-3.1-8.2-3.1-11.3,0c-3.1,3.1-3.1,8.1,0,11.3l18.3,18.3H284c-4.4,0-8,3.6-8,8
	C276.1,75.6,279.6,79.2,284,79.2z"/>
<path class="st0" d="M43.4,79.2h102.7c4.4,0,8-3.6,8-8c0-4.4-3.6-8-8-8H43.6L62,44.9c3.1-3.1,3.1-8.2,0-11.3
	c-3.1-3.1-8.1-3.1-11.3,0L18.6,65.7c-3.1,3.1-3.1,8.2,0,11.3l32.1,32.1c2,2,5,2.8,7.7,2.1c2.8-0.7,4.9-2.9,5.7-5.7
	c0.7-2.8-0.1-5.7-2.1-7.7L43.4,79.2z"/>
</svg>
